<svg width="130" height="31" viewBox="0 0 130 31" fill="none" xmlns="http://www.w3.org/2000/svg">
<g id="moca-logo">
<circle id="ellipse" cx="15.2031" cy="15.9727" r="15" fill="#FF2619"/>
<circle id="ws" cx="124.017" cy="5.97266" r="5" fill="#00AEFF"/>
<g id="moca">
<path d="M56.4143 9.16309C58.3943 9.16309 59.9783 9.76758 61.1663 10.9766C62.3763 12.1856 62.9813 13.8122 62.9813 15.8565V25.5834H59.9453V16.3841C59.9453 15.0432 59.5823 13.9771 58.8563 13.1857C58.1303 12.3944 57.1513 11.9987 55.9193 11.9987C55.1053 11.9987 54.3023 12.2405 53.5103 12.7241C52.7403 13.2077 52.1463 13.8122 51.7282 14.5376C51.7722 14.7354 51.8162 15.0542 51.8603 15.4938V25.5834H48.8242V16.3841C48.8242 15.0432 48.4612 13.9771 47.7352 13.1857C47.0092 12.3944 46.0522 11.9987 44.8642 11.9987C43.9842 11.9987 43.1812 12.2295 42.4552 12.6911C41.7292 13.1308 41.1682 13.7353 40.7722 14.5046V25.5834H37.7031V9.49281H40.7722V11.7679C41.9602 10.0314 43.6432 9.16309 45.8212 9.16309C48.1972 9.16309 49.9022 10.1193 50.9362 12.0317C51.5522 11.2184 52.3333 10.5369 53.2793 9.9874C54.2253 9.43786 55.2703 9.16309 56.4143 9.16309Z" fill="#191919"/>
<path d="M73.625 25.9131C71.271 25.9131 69.2909 25.1108 67.6849 23.5061C66.1009 21.9014 65.3089 19.9231 65.3089 17.5711C65.3089 15.197 66.1009 13.2077 67.6849 11.603C69.2909 9.97641 71.271 9.16309 73.625 9.16309C75.957 9.16309 77.926 9.97641 79.532 11.603C81.138 13.2077 81.941 15.197 81.941 17.5711C81.941 19.9231 81.138 21.9014 79.532 23.5061C77.926 25.1108 75.957 25.9131 73.625 25.9131ZM73.625 23.0115C75.121 23.0115 76.386 22.4949 77.42 21.4618C78.454 20.4067 78.971 19.1098 78.971 17.5711C78.971 16.0104 78.454 14.7025 77.42 13.6473C76.386 12.5922 75.121 12.0647 73.625 12.0647C72.107 12.0647 70.8309 12.5922 69.7969 13.6473C68.7849 14.7025 68.2789 16.0104 68.2789 17.5711C68.2789 19.1098 68.7849 20.4067 69.7969 21.4618C70.8309 22.4949 72.107 23.0115 73.625 23.0115Z" fill="#191919"/>
<path d="M91.3572 25.9131C89.0032 25.9131 87.0232 25.1108 85.4172 23.5061C83.8331 21.9014 83.0411 19.9231 83.0411 17.5711C83.0411 15.197 83.8331 13.2077 85.4172 11.603C87.0232 9.97641 89.0032 9.16309 91.3572 9.16309C93.2492 9.16309 94.9102 9.72362 96.3403 10.8447C97.7923 11.9657 98.6503 13.3616 98.9143 15.0322H95.8123C95.5703 14.1749 95.0312 13.4715 94.1952 12.9219C93.3592 12.3504 92.4132 12.0647 91.3572 12.0647C89.8392 12.0647 88.5632 12.5922 87.5292 13.6473C86.5172 14.7025 86.0112 16.0104 86.0112 17.5711C86.0112 19.1098 86.5172 20.4067 87.5292 21.4618C88.5632 22.4949 89.8392 23.0115 91.3572 23.0115C92.4352 23.0115 93.3922 22.7258 94.2282 22.1542C95.0862 21.5607 95.6252 20.8133 95.8452 19.9121H98.9143C98.6943 21.6487 97.8583 23.0884 96.4063 24.2315C94.9542 25.3526 93.2712 25.9131 91.3572 25.9131Z" fill="#191919"/>
<path d="M107.251 9.16309C109.386 9.16309 111.047 9.7456 112.235 10.9106C113.423 12.0757 114.017 13.6254 114.017 15.5597V25.5834H111.113V23.2753C110.585 24.1106 109.848 24.7591 108.902 25.2207C107.977 25.6823 106.965 25.9131 105.865 25.9131C104.303 25.9131 103.027 25.4735 102.037 24.5942C101.047 23.7149 100.552 22.6049 100.552 21.264C100.552 19.5494 101.256 18.2195 102.664 17.2743C104.094 16.3071 106.063 15.8235 108.572 15.8235H111.113V15.3949C111.113 14.2518 110.761 13.3506 110.057 12.6911C109.353 12.0097 108.418 11.669 107.251 11.669C106.239 11.669 105.37 11.9657 104.644 12.5592C103.918 13.1528 103.522 13.9001 103.456 14.8014H100.75C100.86 13.2187 101.542 11.8888 102.796 10.8117C104.05 9.71263 105.535 9.16309 107.251 9.16309ZM106.426 23.3412C107.372 23.3412 108.264 23.1104 109.1 22.6488C109.936 22.1872 110.607 21.5387 111.113 20.7034V18.1316H108.472C105.062 18.1316 103.357 19.0658 103.357 20.9342C103.357 21.6596 103.632 22.2422 104.182 22.6818C104.754 23.1214 105.502 23.3412 106.426 23.3412Z" fill="#191919"/>
</g>
</g>
</svg>
