<svg width="181" height="31" viewBox="0 0 181 31" fill="none" xmlns="http://www.w3.org/2000/svg">
<g id="websolute logo">
<circle id="Ellipse 2" cx="15.2031" cy="15.9727" r="15" fill="#00AEFF"/>
<g id="websolute">
<path d="M43.5377 25.5584L37.7031 9.48205H40.9335L44.7903 21.0123L48.9107 9.48205H51.383L55.5693 21.0123L59.3931 9.48205H62.6565L56.789 25.5584H54.3497L50.1633 14.0282L45.944 25.5584H43.5377Z" fill="#191919"/>
<path d="M78.6621 17.1249C78.6621 17.5861 78.6401 17.9924 78.5961 18.3438H65.6744C65.8503 19.8153 66.4106 20.9903 67.3556 21.8688C68.3225 22.7253 69.5422 23.1536 71.0145 23.1536C72.1353 23.1536 73.1022 22.901 73.9153 22.3959C74.7504 21.8907 75.2668 21.2099 75.4646 20.3534H78.4972C78.2116 22.0225 77.3655 23.3622 75.9591 24.3725C74.5526 25.3827 72.8715 25.8879 70.9156 25.8879C68.5862 25.8879 66.6304 25.0863 65.0481 23.483C63.4659 21.8578 62.6748 19.8483 62.6748 17.4544C62.6748 15.1264 63.4659 13.1607 65.0481 11.5575C66.6304 9.95424 68.5752 9.15262 70.8827 9.15262C73.0583 9.15262 74.8932 9.91032 76.3876 11.4257C77.9039 12.9192 78.6621 14.8189 78.6621 17.1249ZM65.7733 15.7742H75.3657C75.2339 14.6322 74.7394 13.7098 73.8824 13.007C73.0473 12.2822 72.0034 11.9199 70.7508 11.9199C69.4982 11.9199 68.4214 12.2603 67.5204 12.9411C66.6414 13.6219 66.059 14.5663 65.7733 15.7742Z" fill="#191919"/>
<path d="M89.3273 9.15262C91.5468 9.15262 93.4038 9.96522 94.8981 11.5904C96.4145 13.1937 97.1726 15.1703 97.1726 17.5203C97.1726 19.8702 96.4145 21.8578 94.8981 23.483C93.4038 25.0863 91.5468 25.8879 89.3273 25.8879C88.2065 25.8879 87.1407 25.6353 86.1298 25.1302C85.119 24.625 84.3938 23.9881 83.9542 23.2195V25.5584H80.8886V2.49805H83.9542V11.821C84.3938 11.0524 85.119 10.4155 86.1298 9.91032C87.1407 9.40519 88.2065 9.15262 89.3273 9.15262ZM88.734 23.0218C90.2942 23.0218 91.5908 22.4947 92.6236 21.4405C93.6785 20.3863 94.2059 19.0796 94.2059 17.5203C94.2059 15.939 93.6785 14.6322 92.6236 13.6C91.5908 12.5458 90.2942 12.0187 88.734 12.0187C87.7451 12.0187 86.8111 12.2713 85.9321 12.7764C85.053 13.2815 84.3938 13.9294 83.9542 14.7201V20.3534C84.3938 21.144 85.053 21.7919 85.9321 22.297C86.8111 22.7802 87.7451 23.0218 88.734 23.0218Z" fill="#191919"/>
<path d="M104.88 25.8879C102.99 25.8879 101.43 25.4157 100.199 24.4713C98.9687 23.5269 98.2765 22.2421 98.1226 20.6169H101.023C101.133 21.4076 101.529 22.0445 102.21 22.5277C102.891 23.0108 103.737 23.2524 104.748 23.2524C105.737 23.2524 106.528 23.0438 107.122 22.6265C107.737 22.2092 108.045 21.6601 108.045 20.9793C108.045 20.2546 107.715 19.7055 107.056 19.3321C106.396 18.9368 105.594 18.6623 104.649 18.5086C103.726 18.3329 102.792 18.1352 101.848 17.9156C100.925 17.674 100.133 17.2238 99.4741 16.5649C98.8149 15.906 98.4852 15.0165 98.4852 13.8965C98.4852 12.5128 99.0236 11.3818 100.1 10.5033C101.177 9.60285 102.606 9.15262 104.386 9.15262C106.034 9.15262 107.451 9.59186 108.638 10.4704C109.847 11.3269 110.55 12.5019 110.748 13.9953H107.682C107.572 13.3364 107.21 12.7984 106.594 12.3811C105.979 11.9418 105.221 11.7222 104.32 11.7222C103.463 11.7222 102.77 11.8979 102.243 12.2493C101.716 12.6007 101.452 13.0729 101.452 13.6659C101.452 14.2588 101.683 14.731 102.144 15.0824C102.628 15.4119 103.221 15.6425 103.924 15.7742C104.627 15.8841 105.397 16.0378 106.232 16.2355C107.067 16.4331 107.836 16.6637 108.539 16.9273C109.242 17.1908 109.825 17.663 110.286 18.3438C110.77 19.0247 111.011 19.8812 111.011 20.9134C111.011 22.341 110.429 23.5269 109.264 24.4713C108.1 25.4157 106.638 25.8879 104.88 25.8879Z" fill="#191919"/>
<path d="M120.573 25.8879C118.222 25.8879 116.244 25.0863 114.64 23.483C113.058 21.8798 112.267 19.9032 112.267 17.5532C112.267 15.1813 113.058 13.1937 114.64 11.5904C116.244 9.96522 118.222 9.15262 120.573 9.15262C122.903 9.15262 124.87 9.96522 126.474 11.5904C128.078 13.1937 128.88 15.1813 128.88 17.5532C128.88 19.9032 128.078 21.8798 126.474 23.483C124.87 25.0863 122.903 25.8879 120.573 25.8879ZM120.573 22.9889C122.068 22.9889 123.331 22.4727 124.364 21.4405C125.397 20.3863 125.913 19.0906 125.913 17.5532C125.913 15.9939 125.397 14.6871 124.364 13.6329C123.331 12.5787 122.068 12.0516 120.573 12.0516C119.057 12.0516 117.782 12.5787 116.75 13.6329C115.739 14.6871 115.233 15.9939 115.233 17.5532C115.233 19.0906 115.739 20.3863 116.75 21.4405C117.782 22.4727 119.057 22.9889 120.573 22.9889Z" fill="#191919"/>
<path d="M134.19 2.49805V25.5584H131.124V2.49805H134.19Z" fill="#191919"/>
<path d="M149.145 9.48205H152.178V25.5584H149.145V23.2195C148.64 24.0321 147.904 24.68 146.937 25.1631C145.992 25.6463 144.97 25.8879 143.871 25.8879C141.872 25.8879 140.267 25.24 139.059 23.9442C137.872 22.6265 137.279 20.8805 137.279 18.7062V9.48205H140.344V18.245C140.344 19.6506 140.729 20.7816 141.498 21.6382C142.267 22.4727 143.289 22.89 144.564 22.89C145.509 22.89 146.399 22.6594 147.234 22.1982C148.069 21.737 148.706 21.1111 149.145 20.3204V9.48205Z" fill="#191919"/>
<path d="M164.146 12.3811H159.794V19.7933C159.794 21.8578 160.871 22.89 163.025 22.89C163.486 22.89 163.86 22.8461 164.146 22.7583V25.5584C163.662 25.6902 163.08 25.7561 162.399 25.7561C160.663 25.7561 159.289 25.251 158.278 24.2407C157.267 23.2304 156.762 21.77 156.762 19.8592V12.3811H153.63V9.48205H156.762V5.13352H159.794V9.48205H164.146V12.3811Z" fill="#191919"/>
<path d="M180.33 17.1249C180.33 17.5861 180.308 17.9924 180.264 18.3438H167.343C167.518 19.8153 168.079 20.9903 169.024 21.8688C169.991 22.7253 171.21 23.1536 172.683 23.1536C173.803 23.1536 174.77 22.901 175.583 22.3959C176.419 21.8907 176.935 21.2099 177.133 20.3534H180.165C179.88 22.0225 179.034 23.3622 177.627 24.3725C176.221 25.3827 174.54 25.8879 172.584 25.8879C170.254 25.8879 168.299 25.0863 166.716 23.483C165.134 21.8578 164.343 19.8483 164.343 17.4544C164.343 15.1264 165.134 13.1607 166.716 11.5575C168.299 9.95424 170.243 9.15262 172.551 9.15262C174.726 9.15262 176.561 9.91032 178.056 11.4257C179.572 12.9192 180.33 14.8189 180.33 17.1249ZM167.441 15.7742H177.034C176.902 14.6322 176.408 13.7098 175.551 13.007C174.715 12.2822 173.672 11.9199 172.419 11.9199C171.166 11.9199 170.09 12.2603 169.189 12.9411C168.31 13.6219 167.727 14.5663 167.441 15.7742Z" fill="#191919"/>
</g>
</g>
</svg>
