<svg width="160" height="160" viewBox="0 0 160 160" fill="none" xmlns="http://www.w3.org/2000/svg">
<path d="M44.209 9.3926C34.2573 15.1348 30.8419 27.857 36.5806 37.8087C42.3193 47.7604 55.045 51.1759 64.9967 45.4372C74.9484 39.695 78.3639 26.9728 72.6252 17.0211C66.883 7.06938 54.1608 3.6539 44.209 9.3926Z" fill="#00AEFF"/>
<path d="M22.2164 30.3762C12.2647 36.1184 8.84919 48.8406 14.5879 58.7923C20.3266 68.744 33.0523 72.1595 43.004 66.4208C52.9557 60.6786 56.3712 47.9564 50.6325 38.0047C44.8903 28.053 32.1681 24.6375 22.2164 30.3762Z" fill="#00D1C7"/>
<path d="M10.4132 62.5073C0.461444 68.2495 -2.95404 80.9717 2.78466 90.9234C8.52336 100.875 21.2491 104.291 31.2008 98.5519C41.1525 92.8097 44.568 80.0875 38.8293 70.1358C33.0871 60.1841 20.3649 56.7686 10.4132 62.5073Z" fill="#00AEFF"/>
<path d="M22.2164 93.9827C12.2647 99.7249 8.84919 112.447 14.5879 122.399C20.3266 132.351 33.0523 135.766 43.004 130.027C52.9557 124.285 56.3712 111.563 50.6325 101.611C44.8903 91.6595 32.1681 88.244 22.2164 93.9827Z" fill="#00D1C7"/>
<path d="M44.209 114.563C34.2573 120.305 30.8419 133.027 36.5806 142.979C42.3193 152.931 55.045 156.346 64.9967 150.607C74.9484 144.865 78.3639 132.143 72.6252 122.191C66.883 112.24 54.1608 108.824 44.209 114.563Z" fill="#00D1C7"/>
<path d="M44.209 79.5061C34.2573 85.2482 30.8419 97.9705 36.5806 107.922C42.3193 117.874 55.045 121.289 64.9967 115.551C74.9484 109.808 78.3639 97.0863 72.6252 87.1346C66.883 77.1828 54.1608 73.7674 44.209 79.5061Z" fill="#00AEFF"/>
<path d="M44.209 44.4494C34.2573 50.1916 30.8419 62.9138 36.5806 72.8655C42.3193 82.8172 55.045 86.2327 64.9967 80.494C74.9484 74.7519 78.3639 62.0296 72.6252 52.0779C66.883 42.1262 54.1608 38.7107 44.209 44.4494Z" fill="#00D1C7"/>
<path d="M115.791 150.607C125.742 144.865 129.158 132.143 123.419 122.191C117.68 112.24 104.955 108.824 95.0031 114.563C85.0514 120.305 81.6359 133.027 87.3746 142.979C93.1168 152.931 105.839 156.346 115.791 150.607Z" fill="#00D1C7"/>
<path d="M137.783 130.28C147.735 124.537 151.15 111.815 145.412 101.864C139.673 91.9118 126.947 88.4963 116.996 94.235C107.044 99.9772 103.628 112.699 109.367 122.651C115.109 132.603 127.831 136.018 137.783 130.28Z" fill="#00AEFF"/>
<path d="M149.587 98.1485C159.538 92.4064 162.954 79.6841 157.215 69.7324C151.476 59.7807 138.751 56.3652 128.799 62.1039C118.847 67.8461 115.432 80.5683 121.17 90.52C126.913 100.472 139.635 103.887 149.587 98.1485Z" fill="#00D1C7"/>
<path d="M137.783 66.673C147.735 60.9308 151.15 48.2086 145.412 38.2568C139.673 28.3051 126.947 24.8897 116.996 30.6284C107.044 36.3705 103.628 49.0928 109.367 59.0445C115.109 68.9962 127.831 72.4117 137.783 66.673Z" fill="#00AEFF"/>
<path d="M115.791 45.4371C125.742 39.6949 129.158 26.9727 123.419 17.0209C117.68 7.06924 104.955 3.65375 95.0031 9.39245C85.0514 15.1346 81.6359 27.8569 87.3746 37.8086C93.1168 47.7603 105.839 51.1758 115.791 45.4371Z" fill="#00AEFF"/>
<path d="M115.791 80.4939C125.742 74.7517 129.158 62.0295 123.419 52.0778C117.68 42.1261 104.955 38.7106 95.0031 44.4493C85.0514 50.1914 81.6359 62.9137 87.3746 72.8654C93.1168 82.8171 105.839 86.2326 115.791 80.4939Z" fill="#00D1C7"/>
<path d="M115.791 115.551C125.742 109.808 129.158 97.0861 123.419 87.1344C117.68 77.1827 104.955 73.7672 95.0031 79.5059C85.0514 85.2481 81.6359 97.9703 87.3746 107.922C93.1168 117.874 105.839 121.289 115.791 115.551Z" fill="#00AEFF"/>
</svg>
