<svg width="160" height="160" viewBox="0 0 160 160" fill="none" xmlns="http://www.w3.org/2000/svg">
<path d="M80 160C124.181 160 160 124.181 160 80C160 35.8187 124.181 0 80 0C35.8187 0 0 35.8187 0 80C0 124.181 35.8187 160 80 160Z" fill="#FFCC00"/>
<path d="M79.9999 136.667C111.295 136.667 136.667 111.295 136.667 80.0003C136.667 48.7052 111.295 23.3336 79.9999 23.3336C48.7048 23.3336 23.3333 48.7052 23.3333 80.0003C23.3333 111.295 48.7048 136.667 79.9999 136.667Z" fill="#FF9500"/>
<path d="M80.0001 113.333C98.409 113.333 113.333 98.4086 113.333 79.9997C113.333 61.5908 98.409 46.6664 80.0001 46.6664C61.5912 46.6664 46.6667 61.5908 46.6667 79.9997C46.6667 98.4086 61.5912 113.333 80.0001 113.333Z" fill="#FF2619"/>
<path d="M80 90C85.5227 90 90 85.5227 90 80C90 74.4773 85.5227 70 80 70C74.4773 70 70 74.4773 70 80C70 85.5227 74.4773 90 80 90Z" fill="#AC43DE"/>
</svg>
