<svg width="160" height="160" viewBox="0 0 160 160" fill="none" xmlns="http://www.w3.org/2000/svg">
<path d="M5.00119 51.8754C5.00119 62.2332 13.3962 70.6282 23.754 70.6282C34.1118 70.6282 42.5068 62.2311 42.5068 51.8754C42.5068 41.5197 34.1118 33.1226 23.754 33.1226C13.3962 33.1226 5.00119 41.5176 5.00119 51.8754Z" fill="#AC43DE"/>
<path d="M5.00119 108.122C5.00119 118.48 13.3962 126.875 23.754 126.875C34.1118 126.875 42.5068 118.478 42.5068 108.122C42.5068 97.7663 34.1118 89.3692 23.754 89.3692C13.3962 89.3692 5.00119 97.7642 5.00119 108.122Z" fill="#AC43DE"/>
<path d="M33.1242 23.7528C33.1242 34.1106 41.5193 42.5057 51.8771 42.5057C62.2349 42.5057 70.6299 34.1086 70.6299 23.7528C70.6299 13.3971 62.2349 5 51.8771 5C41.5193 5 33.1242 13.395 33.1242 23.7528Z" fill="#AC43DE"/>
<path d="M33.1242 51.8754C33.1242 62.2332 41.5193 70.6282 51.8771 70.6282C62.2349 70.6282 70.6299 62.2311 70.6299 51.8754C70.6299 41.5197 62.2349 33.1226 51.8771 33.1226C41.5193 33.1226 33.1242 41.5176 33.1242 51.8754Z" fill="#28C750"/>
<path d="M33.1242 79.9999C33.1242 90.3577 41.5193 98.7527 51.8771 98.7527C62.2349 98.7527 70.6299 90.3556 70.6299 79.9999C70.6299 69.6442 62.2349 61.2471 51.8771 61.2471C41.5193 61.2471 33.1242 69.6421 33.1242 79.9999Z" fill="#AC43DE"/>
<path d="M33.1242 108.122C33.1242 118.48 41.5193 126.875 51.8771 126.875C62.2349 126.875 70.6299 118.478 70.6299 108.122C70.6299 97.7663 62.2349 89.3692 51.8771 89.3692C41.5193 89.3692 33.1242 97.7642 33.1242 108.122Z" fill="#28C750"/>
<path d="M33.1242 136.247C33.1242 146.605 41.5193 155 51.8771 155C62.2349 155 70.6299 146.603 70.6299 136.247C70.6299 125.892 62.2349 117.494 51.8771 117.494C41.5193 117.494 33.1242 125.889 33.1242 136.247Z" fill="#AC43DE"/>
<path d="M61.2473 51.8754C61.2473 62.2332 69.6423 70.6282 80.0001 70.6282C90.3579 70.6282 98.7529 62.2311 98.7529 51.8754C98.7529 41.5197 90.3579 33.1226 80.0001 33.1226C69.6423 33.1226 61.2473 41.5176 61.2473 51.8754Z" fill="#AC43DE"/>
<path d="M61.2473 108.122C61.2473 118.48 69.6423 126.875 80.0001 126.875C90.3579 126.875 98.7529 118.478 98.7529 108.122C98.7529 97.7663 90.3579 89.3692 80.0001 89.3692C69.6423 89.3692 61.2473 97.7642 61.2473 108.122Z" fill="#AC43DE"/>
<path d="M89.3713 23.7528C89.3713 34.1106 97.7663 42.5057 108.124 42.5057C118.482 42.5057 126.877 34.1086 126.877 23.7528C126.877 13.3971 118.482 5 108.124 5C97.7663 5 89.3713 13.395 89.3713 23.7528Z" fill="#AC43DE"/>
<path d="M89.3713 51.8754C89.3713 62.2332 97.7663 70.6282 108.124 70.6282C118.482 70.6282 126.877 62.2311 126.877 51.8754C126.877 41.5197 118.482 33.1226 108.124 33.1226C97.7663 33.1226 89.3713 41.5176 89.3713 51.8754Z" fill="#28C750"/>
<path d="M89.3713 79.9999C89.3713 90.3577 97.7663 98.7527 108.124 98.7527C118.482 98.7527 126.877 90.3556 126.877 79.9999C126.877 69.6442 118.482 61.2471 108.124 61.2471C97.7663 61.2471 89.3713 69.6421 89.3713 79.9999Z" fill="#AC43DE"/>
<path d="M89.3713 108.122C89.3713 118.48 97.7663 126.875 108.124 126.875C118.482 126.875 126.877 118.478 126.877 108.122C126.877 97.7663 118.482 89.3692 108.124 89.3692C97.7663 89.3692 89.3713 97.7642 89.3713 108.122Z" fill="#28C750"/>
<path d="M89.3713 136.247C89.3713 146.605 97.7663 155 108.124 155C118.482 155 126.877 146.603 126.877 136.247C126.877 125.892 118.482 117.494 108.124 117.494C97.7663 117.494 89.3713 125.889 89.3713 136.247Z" fill="#AC43DE"/>
<path d="M117.494 51.8754C117.494 62.2332 125.889 70.6282 136.247 70.6282C146.604 70.6282 155 62.2311 155 51.8754C155 41.5197 146.604 33.1226 136.247 33.1226C125.889 33.1226 117.494 41.5176 117.494 51.8754Z" fill="#AC43DE"/>
<path d="M117.494 108.122C117.494 118.48 125.889 126.875 136.247 126.875C146.604 126.875 155 118.478 155 108.122C155 97.7663 146.604 89.3692 136.247 89.3692C125.889 89.3692 117.494 97.7642 117.494 108.122Z" fill="#AC43DE"/>
</svg>
