<svg width="160" height="170" viewBox="0 0 160 170" fill="none" xmlns="http://www.w3.org/2000/svg">
<path d="M80.0001 121.429C113.531 121.429 140.715 94.245 140.715 60.7145C140.715 27.1839 113.531 0 80.0001 0C46.4695 0 19.2856 27.1839 19.2856 60.7145C19.2856 94.245 46.4695 121.429 80.0001 121.429Z" fill="#00D1C7"/>
<path d="M79.6962 139.644C104.006 139.644 123.714 119.935 123.714 95.6258C123.714 71.3161 104.006 51.6078 79.6962 51.6078C55.3865 51.6078 35.6782 71.3161 35.6782 95.6258C35.6782 119.935 55.3865 139.644 79.6962 139.644Z" fill="#00AEFF"/>
<path d="M79.6963 157.858C95.6233 157.858 108.536 144.946 108.536 129.018C108.536 113.091 95.6233 100.179 79.6963 100.179C63.7693 100.179 50.8569 113.091 50.8569 129.018C50.8569 144.946 63.7693 157.858 79.6963 157.858Z" fill="#5856D6"/>
<path d="M79.9998 170C86.7059 170 92.1427 164.563 92.1427 157.857C92.1427 151.151 86.7059 145.714 79.9998 145.714C73.2937 145.714 67.8569 151.151 67.8569 157.857C67.8569 164.563 73.2937 170 79.9998 170Z" fill="#AC43DE"/>
</svg>
