<svg width="160" height="160" viewBox="0 0 160 160" fill="none" xmlns="http://www.w3.org/2000/svg">
<path d="M79.9995 60.0002C96.5695 60.0002 110 46.5701 110 30.0001C110 13.43 96.5662 0 79.9995 0C63.4328 0 49.9994 13.43 49.9994 30.0001C49.9994 46.5701 63.4294 60.0002 79.9995 60.0002Z" fill="#00AEFF"/>
<path d="M94.1416 65.859C105.858 77.5758 124.851 77.5758 136.568 65.859C148.285 54.1423 148.283 35.1469 136.568 23.4325C124.854 11.7181 105.858 11.7157 94.1416 23.4325C82.4248 35.1493 82.4248 54.1422 94.1416 65.859Z" fill="#00D1C7"/>
<path d="M99.9997 80.0001C99.9997 96.5701 113.43 110 130 110C146.57 110 160 96.5668 160 80.0001C160 63.4334 146.57 50 130 50C113.43 50 99.9997 63.43 99.9997 80.0001Z" fill="#28C750"/>
<path d="M94.1424 94.1425C82.4256 105.859 82.4256 124.852 94.1424 136.569C105.859 148.286 124.855 148.283 136.569 136.569C148.283 124.855 148.286 105.859 136.569 94.1424C124.852 82.4257 105.859 82.4257 94.1424 94.1425Z" fill="#FFCC00"/>
<path d="M79.9995 160C96.5695 160 110 146.57 110 130C110 113.43 96.5662 99.9998 79.9995 99.9998C63.4328 99.9998 49.9994 113.43 49.9994 130C49.9994 146.57 63.4294 160 79.9995 160Z" fill="#FF9500"/>
<path d="M23.4318 136.569C35.1486 148.286 54.1415 148.286 65.8583 136.569C77.5751 124.852 77.5727 105.857 65.8583 94.1423C54.1439 82.4278 35.1485 82.4255 23.4318 94.1423C11.715 105.859 11.715 124.852 23.4318 136.569Z" fill="#FF2619"/>
<path d="M0.000319779 80.0001C0.000319417 96.5701 13.4304 110 30.0004 110C46.5704 110 60.0005 96.5668 60.0005 80.0001C60.0005 63.4334 46.5704 50 30.0004 50C13.4304 50 0.000320141 63.43 0.000319779 80.0001Z" fill="#AC43DE"/>
<path d="M23.4319 23.4324C11.7151 35.1492 11.7151 54.1422 23.4318 65.859C35.1486 77.5758 54.1439 77.5734 65.8584 65.859C77.5728 54.1445 77.5752 35.1492 65.8584 23.4324C54.1416 11.7156 35.1487 11.7156 23.4319 23.4324Z" fill="#5856D6"/>
<path fill-rule="evenodd" clip-rule="evenodd" d="M71.1673 58.6789C77.17 47.3453 75.4014 32.9728 65.8578 23.4292C62.2734 19.8447 58.0079 17.3568 53.4781 15.9655C51.2576 20.1531 49.9998 24.9294 49.9998 29.9998C49.9998 43.4957 58.9089 54.9086 71.1673 58.6789Z" fill="#00AEFF"/>
</svg>
