<svg width="160" height="160" viewBox="0 0 160 160" fill="none" xmlns="http://www.w3.org/2000/svg">
<path d="M33.6079 149.621C48.0264 149.621 59.7158 137.932 59.7158 123.513C59.7158 109.095 48.0264 97.4056 33.6079 97.4056C19.1894 97.4056 7.5 109.095 7.5 123.513C7.5 137.932 19.1894 149.621 33.6079 149.621Z" fill="#FF2619"/>
<path d="M80.2896 106.108C94.7081 106.108 106.397 94.4183 106.397 79.9998C106.397 65.5813 94.7081 53.8919 80.2896 53.8919C65.871 53.8919 54.1816 65.5813 54.1816 79.9998C54.1816 94.4183 65.871 106.108 80.2896 106.108Z" fill="#FF2619"/>
<path d="M80.2896 149.621C94.7081 149.621 106.397 137.932 106.397 123.513C106.397 109.095 94.7081 97.4055 80.2896 97.4055C65.871 97.4055 54.1816 109.095 54.1816 123.513C54.1816 137.932 65.871 149.621 80.2896 149.621Z" fill="#FF9500"/>
<path d="M126.682 62.5946C140.941 62.5946 152.5 50.9052 152.5 36.4867C152.5 22.0682 140.941 10.3788 126.682 10.3788C112.424 10.3788 100.865 22.0682 100.865 36.4867C100.865 50.9052 112.424 62.5946 126.682 62.5946Z" fill="#FF2619"/>
<path d="M126.682 106.108C140.941 106.108 152.5 94.4183 152.5 79.9998C152.5 65.5813 140.941 53.8919 126.682 53.8919C112.424 53.8919 100.865 65.5813 100.865 79.9998C100.865 94.4183 112.424 106.108 126.682 106.108Z" fill="#FF9500"/>
<path d="M126.682 149.621C140.941 149.621 152.5 137.932 152.5 123.513C152.5 109.095 140.941 97.4056 126.682 97.4056C112.424 97.4056 100.865 109.095 100.865 123.513C100.865 137.932 112.424 149.621 126.682 149.621Z" fill="#FFCC00"/>
</svg>
