<svg width="160" height="160" viewBox="0 0 160 160" fill="none" xmlns="http://www.w3.org/2000/svg">
<path d="M18.7348 51.0455C29.0829 51.0455 37.4701 42.6584 37.4701 32.3102C37.4701 21.9621 29.0809 13.575 18.7348 13.575C8.38876 13.575 -0.000488281 21.9621 -0.000488281 32.3102C-0.000488281 42.6584 8.38668 51.0455 18.7348 51.0455Z" fill="#FFCC00"/>
<path d="M49.3935 51.0455C59.7416 51.0455 68.1288 42.6584 68.1288 32.3102C68.1288 21.9621 59.7395 13.575 49.3935 13.575C39.0475 13.575 30.6582 21.9621 30.6582 32.3102C30.6582 42.6584 39.0454 51.0455 49.3935 51.0455Z" fill="#5856D6"/>
<path d="M80.0497 51.0455C90.3979 51.0455 98.785 42.6584 98.785 32.3102C98.785 21.9621 90.3958 13.575 80.0497 13.575C69.7037 13.575 61.3145 21.9621 61.3145 32.3102C61.3145 42.6584 69.7016 51.0455 80.0497 51.0455Z" fill="#FFCC00"/>
<path d="M110.708 51.0455C121.057 51.0455 129.444 42.6584 129.444 32.3102C129.444 21.9621 121.054 13.575 110.708 13.575C100.362 13.575 91.9731 21.9621 91.9731 32.3102C91.9731 42.6584 100.36 51.0455 110.708 51.0455Z" fill="#5856D6"/>
<path d="M49.291 98.7353C59.6391 98.7353 68.0263 90.3481 68.0263 80C68.0263 69.6519 59.637 61.2647 49.291 61.2647C38.9449 61.2647 30.5557 69.6519 30.5557 80C30.5557 90.3481 38.9428 98.7353 49.291 98.7353Z" fill="#FFCC00"/>
<path d="M79.9462 98.7354C90.2944 98.7354 98.6815 90.3482 98.6815 80.0001C98.6815 69.6519 90.2923 61.2648 79.9462 61.2648C69.6002 61.2648 61.2109 69.6519 61.2109 80.0001C61.2109 90.3482 69.5981 98.7354 79.9462 98.7354Z" fill="#5856D6"/>
<path d="M110.606 98.7354C120.954 98.7354 129.341 90.3482 129.341 80.0001C129.341 69.6519 120.952 61.2648 110.606 61.2648C100.26 61.2648 91.8706 69.6519 91.8706 80.0001C91.8706 90.3482 100.258 98.7354 110.606 98.7354Z" fill="#FFCC00"/>
<path d="M141.265 98.7354C151.613 98.7354 160 90.3482 160 80.0001C160 69.6519 151.611 61.2648 141.265 61.2648C130.919 61.2648 122.53 69.6519 122.53 80.0001C122.53 90.3482 130.917 98.7354 141.265 98.7354Z" fill="#5856D6"/>
<path d="M18.7348 146.425C29.0829 146.425 37.4701 138.038 37.4701 127.69C37.4701 117.342 29.0809 108.954 18.7348 108.954C8.38876 108.954 -0.000488281 117.342 -0.000488281 127.69C-0.000488281 138.038 8.38668 146.425 18.7348 146.425Z" fill="#FFCC00"/>
<path d="M49.3935 146.425C59.7416 146.425 68.1288 138.038 68.1288 127.69C68.1288 117.342 59.7395 108.954 49.3935 108.954C39.0475 108.954 30.6582 117.342 30.6582 127.69C30.6582 138.038 39.0454 146.425 49.3935 146.425Z" fill="#5856D6"/>
<path d="M80.0497 146.425C90.3979 146.425 98.785 138.038 98.785 127.69C98.785 117.342 90.3958 108.954 80.0497 108.954C69.7037 108.954 61.3145 117.342 61.3145 127.69C61.3145 138.038 69.7016 146.425 80.0497 146.425Z" fill="#FFCC00"/>
<path d="M110.708 146.425C121.057 146.425 129.444 138.038 129.444 127.69C129.444 117.342 121.054 108.954 110.708 108.954C100.362 108.954 91.9731 117.342 91.9731 127.69C91.9731 138.038 100.36 146.425 110.708 146.425Z" fill="#5856D6"/>
</svg>
