<svg width="200" height="160" viewBox="0 0 200 160" fill="none" xmlns="http://www.w3.org/2000/svg">
<path d="M35.7143 115.714C55.4381 115.714 71.4286 99.7238 71.4286 80C71.4286 60.2762 55.4381 44.2857 35.7143 44.2857C15.9905 44.2857 0 60.2762 0 80C0 99.7238 15.9905 115.714 35.7143 115.714Z" fill="#00D1C7"/>
<path d="M78.5715 115.714C98.2953 115.714 114.286 99.7238 114.286 80C114.286 60.2762 98.2953 44.2857 78.5715 44.2857C58.8477 44.2857 42.8572 60.2762 42.8572 80C42.8572 99.7238 58.8477 115.714 78.5715 115.714Z" fill="#00AEFF"/>
<path d="M121.429 115.714C141.152 115.714 157.143 99.7238 157.143 80C157.143 60.2762 141.152 44.2857 121.429 44.2857C101.705 44.2857 85.7144 60.2762 85.7144 80C85.7144 99.7238 101.705 115.714 121.429 115.714Z" fill="#5856D6"/>
<path d="M164.286 115.714C184.009 115.714 200 99.7238 200 80C200 60.2762 184.009 44.2857 164.286 44.2857C144.562 44.2857 128.571 60.2762 128.571 80C128.571 99.7238 144.562 115.714 164.286 115.714Z" fill="#AC43DE"/>
</svg>
