<svg width="160" height="160" viewBox="0 0 160 160" fill="none" xmlns="http://www.w3.org/2000/svg">
<path d="M80 159.469C124.181 159.469 160 123.769 160 79.7343C160 35.6997 124.181 0 80 0C35.8187 0 0 35.6997 0 79.7343C0 123.769 35.8187 159.469 80 159.469Z" fill="#FFCC00"/>
<path d="M80.0002 159.734C111.295 159.734 136.667 134.447 136.667 103.256C136.667 72.0646 111.295 46.7773 80.0002 46.7773C48.7051 46.7773 23.3335 72.0646 23.3335 103.256C23.3335 134.447 48.7051 159.734 80.0002 159.734Z" fill="#FF9500"/>
<path d="M79.9998 160C98.4087 160 113.333 145.125 113.333 126.778C113.333 108.43 98.4087 93.5549 79.9998 93.5549C61.591 93.5549 46.6665 108.43 46.6665 126.778C46.6665 145.125 61.591 160 79.9998 160Z" fill="#FF2619"/>
<path d="M80 159.203C85.5227 159.203 90 154.74 90 149.236C90 143.732 85.5227 139.269 80 139.269C74.4773 139.269 70 143.732 70 149.236C70 154.74 74.4773 159.203 80 159.203Z" fill="#AC43DE"/>
</svg>
