<svg width="160" height="170" viewBox="0 0 160 170" fill="none" xmlns="http://www.w3.org/2000/svg">
<path d="M56.5207 20.5847C56.5207 9.21647 47.3043 1.38621e-05 35.936 1.4359e-05C24.5678 1.48559e-05 15.3513 9.21648 15.3513 20.5847C15.3513 31.953 24.5678 41.1694 35.936 41.1694C47.3043 41.1694 56.5207 31.953 56.5207 20.5847Z" fill="#FF9500"/>
<path d="M56.5207 63.5284C56.5207 52.1602 47.3043 42.9437 35.936 42.9437C24.5678 42.9437 15.3513 52.1602 15.3513 63.5285C15.3513 74.8967 24.5678 84.1132 35.936 84.1132C47.3043 84.1132 56.5207 74.8967 56.5207 63.5284Z" fill="#FF9500"/>
<path d="M56.5207 106.472C56.5207 95.1034 47.3043 85.8869 35.936 85.8869C24.5678 85.8869 15.3513 95.1034 15.3513 106.472C15.3513 117.84 24.5678 127.056 35.936 127.056C47.3043 127.056 56.5207 117.84 56.5207 106.472Z" fill="#FF9500"/>
<path d="M56.5207 149.415C56.5207 138.047 47.3043 128.831 35.936 128.831C24.5678 128.831 15.3513 138.047 15.3513 149.415C15.3513 160.784 24.5678 170 35.936 170C47.3043 170 56.5207 160.784 56.5207 149.415Z" fill="#FF9500"/>
<path d="M86.7544 127.7C86.7544 116.331 77.5379 107.115 66.1697 107.115C54.8014 107.115 45.585 116.331 45.585 127.7C45.585 139.068 54.8014 148.284 66.1697 148.284C77.5379 148.284 86.7544 139.068 86.7544 127.7Z" fill="#FF2619"/>
<path d="M86.7544 84.7562C86.7544 73.388 77.5379 64.1715 66.1697 64.1715C54.8014 64.1715 45.585 73.388 45.585 84.7562C45.585 96.1245 54.8014 105.341 66.1697 105.341C77.5379 105.341 86.7544 96.1245 86.7544 84.7562Z" fill="#FF2619"/>
<path d="M86.7544 41.8125C86.7544 30.4443 77.5379 21.2278 66.1697 21.2278C54.8014 21.2278 45.585 30.4443 45.585 41.8125C45.585 53.1808 54.8014 62.3972 66.1697 62.3972C77.5379 62.3972 86.7544 53.1808 86.7544 41.8125Z" fill="#FF2619"/>
<path d="M114.415 106.371C114.415 95.0512 105.199 85.8742 93.8306 85.8742C82.4623 85.8742 73.2458 95.0512 73.2458 106.371C73.2458 117.69 82.4623 126.867 93.8306 126.867C105.199 126.867 114.415 117.69 114.415 106.371Z" fill="#AC43DE"/>
<path d="M114.415 63.0408C114.415 51.6725 105.199 42.4561 93.8306 42.4561C82.4623 42.4561 73.2458 51.6725 73.2458 63.0408C73.2458 74.409 82.4623 83.6255 93.8306 83.6255C105.199 83.6255 114.415 74.409 114.415 63.0408Z" fill="#AC43DE"/>
<path d="M144.649 84.9119C144.649 73.5437 135.432 64.3272 124.064 64.3272C112.696 64.3272 103.479 73.5437 103.479 84.9119C103.479 96.2802 112.696 105.497 124.064 105.497C135.432 105.497 144.649 96.2802 144.649 84.9119Z" fill="#5856D6"/>
</svg>
