<svg width="16" height="16" viewBox="0 0 16 16" fill="none" xmlns="http://www.w3.org/2000/svg">
<path fill-rule="evenodd" clip-rule="evenodd" d="M3 1.75C3 1.05964 2.44036 0.5 1.75 0.5C1.05964 0.5 0.5 1.05964 0.5 1.75C0.5 2.44036 1.05964 3 1.75 3C2.44036 3 3 2.44036 3 1.75ZM9.25 1.75C9.25 1.05964 8.69036 0.5 8 0.5C7.30964 0.5 6.75 1.05964 6.75 1.75C6.75 2.44036 7.30964 3 8 3C8.69036 3 9.25 2.44036 9.25 1.75ZM13 1.75C13 1.05964 13.5596 0.5 14.25 0.5C14.9404 0.5 15.5 1.05964 15.5 1.75C15.5 2.44036 14.9404 3 14.25 3C13.5596 3 13 2.44036 13 1.75ZM9.25 8C9.25 7.30964 8.69036 6.75 8 6.75C7.30964 6.75 6.75 7.30964 6.75 8C6.75 8.69036 7.30964 9.25 8 9.25C8.69036 9.25 9.25 8.69036 9.25 8ZM0.5 8C0.5 7.30964 1.05964 6.75 1.75 6.75C2.44036 6.75 3 7.30964 3 8C3 8.69036 2.44036 9.25 1.75 9.25C1.05964 9.25 0.5 8.69036 0.5 8ZM15.5 8C15.5 7.30964 14.9404 6.75 14.25 6.75C13.5596 6.75 13 7.30964 13 8C13 8.69036 13.5596 9.25 14.25 9.25C14.9404 9.25 15.5 8.69036 15.5 8ZM6.75 14.25C6.75 13.5596 7.30964 13 8 13C8.69036 13 9.25 13.5596 9.25 14.25C9.25 14.9404 8.69036 15.5 8 15.5C7.30964 15.5 6.75 14.9404 6.75 14.25ZM3 14.25C3 13.5596 2.44036 13 1.75 13C1.05964 13 0.5 13.5596 0.5 14.25C0.5 14.9404 1.05964 15.5 1.75 15.5C2.44036 15.5 3 14.9404 3 14.25ZM13 14.25C13 13.5596 13.5596 13 14.25 13C14.9404 13 15.5 13.5596 15.5 14.25C15.5 14.9404 14.9404 15.5 14.25 15.5C13.5596 15.5 13 14.9404 13 14.25Z" fill="currentColor"/>
</svg>
