<svg width="20" height="20" viewBox="0 0 20 20" fill="none" xmlns="http://www.w3.org/2000/svg">
<g id="link">
<path id="Vector" fill-rule="evenodd" clip-rule="evenodd" d="M17.0631 3.40877C17.5189 3.59804 17.9329 3.87543 18.2813 4.22503C18.9852 4.9265 19.3819 5.87869 19.3842 6.87244C19.3866 7.86619 18.9944 8.82024 18.2938 9.52503L13.2938 14.525C12.9437 14.8756 12.5276 15.1533 12.0695 15.3421C11.6114 15.5309 11.1205 15.6271 10.625 15.625C9.63133 15.6308 8.67597 15.2419 7.96879 14.5438C7.61919 14.1954 7.3418 13.7814 7.15253 13.3256C6.96326 12.8698 6.86583 12.3811 6.86583 11.8875C6.86583 11.394 6.96326 10.9053 7.15253 10.4495C7.3418 9.99364 7.61919 9.57967 7.96879 9.23128L8.85629 8.34378L9.73754 9.23128L8.85629 10.1188C8.38719 10.5887 8.12398 11.2257 8.12456 11.8897C8.12515 12.5537 8.38948 13.1903 8.85941 13.6594C9.32934 14.1285 9.96638 14.3917 10.6304 14.3911C11.2944 14.3905 11.9309 14.1262 12.4 13.6563L17.4 8.65628C17.6327 8.42359 17.8173 8.14735 17.9432 7.84333C18.0692 7.53931 18.134 7.21347 18.134 6.8844C18.134 6.55533 18.0692 6.22949 17.9432 5.92547C17.8173 5.62145 17.6327 5.34521 17.4 5.11253C17.1674 4.87984 16.8911 4.69526 16.5871 4.56934C16.2831 4.44341 15.9572 4.37859 15.6282 4.37859C15.2991 4.37859 14.9732 4.44341 14.6692 4.56934C14.3652 4.69526 14.089 4.87984 13.8563 5.11253L12.9688 4.22503C13.3172 3.87543 13.7311 3.59804 14.187 3.40877C14.6428 3.2195 15.1315 3.12207 15.625 3.12207C16.1186 3.12207 16.6073 3.2195 17.0631 3.40877ZM2.07386 14.7C2.20022 15.0041 2.38541 15.2802 2.61879 15.5125C2.85109 15.7459 3.1272 15.9311 3.43127 16.0574C3.73534 16.1838 4.06138 16.2489 4.39067 16.2489C4.71995 16.2489 5.04599 16.1838 5.35006 16.0574C5.65413 15.9311 5.93025 15.7459 6.16254 15.5125L7.05004 16.4C6.33862 17.1055 5.37698 17.501 4.37504 17.5C3.38185 17.5124 2.42431 17.1303 1.71254 16.4375C1.362 16.089 1.08382 15.6746 0.893994 15.2183C0.704168 14.7619 0.606445 14.2724 0.606445 13.7781C0.606445 13.2838 0.704168 12.7944 0.893994 12.338C1.08382 11.8816 1.362 11.4673 1.71254 11.1188L6.71254 6.11876C7.41785 5.41345 8.37446 5.01721 9.37192 5.01721C10.3694 5.01721 11.326 5.41345 12.0313 6.11876C12.7366 6.82407 13.1328 7.78068 13.1328 8.77814C13.1328 9.7756 12.7366 10.7322 12.0313 11.4375L10.7063 12.7625L9.81879 11.875L11.1438 10.5313C11.3774 10.2974 11.5623 10.0196 11.6878 9.71386C11.8133 9.40811 11.8769 9.08051 11.875 8.75001C11.8815 8.42054 11.8218 8.09312 11.6994 7.78715C11.577 7.48118 11.3944 7.20289 11.1625 6.96876C10.9302 6.73538 10.6541 6.55019 10.3501 6.42383C10.046 6.29746 9.71995 6.23241 9.39067 6.23241C9.06138 6.23241 8.73534 6.29746 8.43127 6.42383C8.1272 6.55019 7.85109 6.73538 7.61879 6.96876L2.61879 11.9688C2.38541 12.2011 2.20022 12.4772 2.07386 12.7812C1.94749 13.0853 1.88244 13.4114 1.88244 13.7406C1.88244 14.0699 1.94749 14.396 2.07386 14.7Z" fill="white"/>
</g>
</svg>
